<svg width="505" height="130" viewBox="0 0 505 130" fill="none" xmlns="http://www.w3.org/2000/svg">
<g clip-path="url(#clip0)">
<path d="M29.356 76.998H29.192C27.8253 79.13 25.994 80.6607 23.698 81.59C21.4567 82.5193 19.0787 82.984 16.564 82.984C14.7053 82.984 12.9013 82.7107 11.152 82.164C9.45733 81.672 7.954 80.9067 6.642 79.868C5.33 78.8293 4.29133 77.5447 3.526 76.014C2.76067 74.4833 2.378 72.7067 2.378 70.684C2.378 68.388 2.788 66.4473 3.608 64.862C4.48267 63.2767 5.63067 61.9647 7.052 60.926C8.528 59.8873 10.1953 59.0947 12.054 58.548C13.9127 57.9467 15.826 57.5093 17.794 57.236C19.8167 56.9627 21.812 56.7987 23.78 56.744C25.8027 56.6893 27.6613 56.662 29.356 56.662C29.356 54.4753 28.5633 52.7533 26.978 51.496C25.4473 50.184 23.616 49.528 21.484 49.528C19.4613 49.528 17.6027 49.9653 15.908 50.84C14.268 51.66 12.792 52.808 11.48 54.284L4.92 47.56C7.216 45.428 9.89467 43.8427 12.956 42.804C16.0173 41.7107 19.188 41.164 22.468 41.164C26.076 41.164 29.028 41.6287 31.324 42.558C33.6747 43.4327 35.5333 44.7447 36.9 46.494C38.3213 48.2433 39.3053 50.4027 39.852 52.972C40.3987 55.4867 40.672 58.4113 40.672 61.746V82H29.356V76.998ZM26.322 64.534C25.3927 64.534 24.2173 64.5887 22.796 64.698C21.4293 64.7527 20.09 64.9713 18.778 65.354C17.5207 65.7367 16.4273 66.3107 15.498 67.076C14.6233 67.8413 14.186 68.9073 14.186 70.274C14.186 71.75 14.8147 72.8433 16.072 73.554C17.3293 74.2647 18.6413 74.62 20.008 74.62C21.2107 74.62 22.3587 74.456 23.452 74.128C24.6 73.8 25.6113 73.3353 26.486 72.734C27.3607 72.1327 28.044 71.3673 28.536 70.438C29.0827 69.5087 29.356 68.4153 29.356 67.158V64.534H26.322ZM86.765 82H74.957V76.588H74.793C74.3556 77.3533 73.7816 78.1187 73.071 78.884C72.415 79.6493 71.595 80.3327 70.611 80.934C69.627 81.5353 68.5063 82.0273 67.249 82.41C65.9916 82.7927 64.625 82.984 63.149 82.984C60.033 82.984 57.491 82.5193 55.523 81.59C53.6096 80.606 52.1063 79.2667 51.013 77.572C49.9743 75.8773 49.2636 73.882 48.881 71.586C48.553 69.29 48.389 66.8027 48.389 64.124V42.148H60.689V61.664C60.689 62.812 60.7163 64.0147 60.771 65.272C60.8803 66.4747 61.1263 67.5953 61.509 68.634C61.9463 69.6727 62.575 70.52 63.395 71.176C64.2696 71.832 65.4996 72.16 67.085 72.16C68.6703 72.16 69.955 71.8867 70.939 71.34C71.923 70.7387 72.661 69.9733 73.153 69.044C73.6996 68.06 74.055 66.9667 74.219 65.764C74.383 64.5613 74.465 63.304 74.465 61.992V42.148H86.765V82ZM122.617 51.988H111.793V65.272C111.793 66.3653 111.848 67.3767 111.957 68.306C112.066 69.1807 112.312 69.946 112.695 70.602C113.078 71.258 113.652 71.7773 114.417 72.16C115.237 72.488 116.303 72.652 117.615 72.652C118.271 72.652 119.118 72.5973 120.157 72.488C121.25 72.324 122.07 71.996 122.617 71.504V81.754C121.25 82.246 119.829 82.574 118.353 82.738C116.877 82.902 115.428 82.984 114.007 82.984C111.93 82.984 110.016 82.7653 108.267 82.328C106.518 81.8907 104.987 81.2073 103.675 80.278C102.363 79.294 101.324 78.0367 100.559 76.506C99.8482 74.9753 99.4929 73.1167 99.4929 70.93V51.988H91.6209V42.148H99.4929V30.34H111.793V42.148H122.617V51.988ZM127.391 62.074C127.391 58.9033 127.965 56.0333 129.113 53.464C130.261 50.8947 131.819 48.708 133.787 46.904C135.81 45.0453 138.161 43.624 140.839 42.64C143.573 41.656 146.47 41.164 149.531 41.164C152.593 41.164 155.463 41.656 158.141 42.64C160.875 43.624 163.225 45.0453 165.193 46.904C167.216 48.708 168.801 50.8947 169.949 53.464C171.097 56.0333 171.671 58.9033 171.671 62.074C171.671 65.2447 171.097 68.1147 169.949 70.684C168.801 73.2533 167.216 75.4673 165.193 77.326C163.225 79.13 160.875 80.524 158.141 81.508C155.463 82.492 152.593 82.984 149.531 82.984C146.47 82.984 143.573 82.492 140.839 81.508C138.161 80.524 135.81 79.13 133.787 77.326C131.819 75.4673 130.261 73.2533 129.113 70.684C127.965 68.1147 127.391 65.2447 127.391 62.074ZM139.691 62.074C139.691 65.0807 140.539 67.5133 142.233 69.372C143.983 71.2307 146.415 72.16 149.531 72.16C152.647 72.16 155.053 71.2307 156.747 69.372C158.497 67.5133 159.371 65.0807 159.371 62.074C159.371 59.0673 158.497 56.6347 156.747 54.776C155.053 52.9173 152.647 51.988 149.531 51.988C146.415 51.988 143.983 52.9173 142.233 54.776C140.539 56.6347 139.691 59.0673 139.691 62.074ZM206.058 51.988H195.234V65.272C195.234 66.3653 195.289 67.3767 195.398 68.306C195.508 69.1807 195.754 69.946 196.136 70.602C196.519 71.258 197.093 71.7773 197.858 72.16C198.678 72.488 199.744 72.652 201.056 72.652C201.712 72.652 202.56 72.5973 203.598 72.488C204.692 72.324 205.512 71.996 206.058 71.504V81.754C204.692 82.246 203.27 82.574 201.794 82.738C200.318 82.902 198.87 82.984 197.448 82.984C195.371 82.984 193.458 82.7653 191.708 82.328C189.959 81.8907 188.428 81.2073 187.116 80.278C185.804 79.294 184.766 78.0367 184 76.506C183.29 74.9753 182.934 73.1167 182.934 70.93V51.988H175.062V42.148H182.934V30.34H195.234V42.148H206.058V51.988ZM250.685 82H238.877V76.588H238.713C238.276 77.3533 237.702 78.1187 236.991 78.884C236.335 79.6493 235.515 80.3327 234.531 80.934C233.547 81.5353 232.426 82.0273 231.169 82.41C229.912 82.7927 228.545 82.984 227.069 82.984C223.953 82.984 221.411 82.5193 219.443 81.59C217.53 80.606 216.026 79.2667 214.933 77.572C213.894 75.8773 213.184 73.882 212.801 71.586C212.473 69.29 212.309 66.8027 212.309 64.124V42.148H224.609V61.664C224.609 62.812 224.636 64.0147 224.691 65.272C224.8 66.4747 225.046 67.5953 225.429 68.634C225.866 69.6727 226.495 70.52 227.315 71.176C228.19 71.832 229.42 72.16 231.005 72.16C232.59 72.16 233.875 71.8867 234.859 71.34C235.843 70.7387 236.581 69.9733 237.073 69.044C237.62 68.06 237.975 66.9667 238.139 65.764C238.303 64.5613 238.385 63.304 238.385 61.992V42.148H250.685V82ZM259.395 42.148H271.203V47.56H271.367C271.749 46.7947 272.296 46.0293 273.007 45.264C273.717 44.4987 274.565 43.8153 275.549 43.214C276.533 42.6127 277.653 42.1207 278.911 41.738C280.168 41.3553 281.535 41.164 283.011 41.164C286.127 41.164 288.641 41.656 290.555 42.64C292.468 43.5693 293.944 44.8813 294.983 46.576C296.076 48.2707 296.814 50.266 297.197 52.562C297.579 54.858 297.771 57.3453 297.771 60.024V82H285.471V62.484C285.471 61.336 285.416 60.1607 285.307 58.958C285.252 57.7007 285.006 56.5527 284.569 55.514C284.186 54.4753 283.557 53.628 282.683 52.972C281.863 52.316 280.66 51.988 279.075 51.988C277.489 51.988 276.205 52.2887 275.221 52.89C274.237 53.4367 273.471 54.202 272.925 55.186C272.433 56.1153 272.105 57.1813 271.941 58.384C271.777 59.5867 271.695 60.844 271.695 62.156V82H259.395V42.148ZM344.201 75.112C342.233 77.6267 339.745 79.5673 336.739 80.934C333.732 82.3007 330.616 82.984 327.391 82.984C324.329 82.984 321.432 82.492 318.699 81.508C316.02 80.524 313.669 79.13 311.647 77.326C309.679 75.4673 308.121 73.2533 306.973 70.684C305.825 68.1147 305.251 65.2447 305.251 62.074C305.251 58.9033 305.825 56.0333 306.973 53.464C308.121 50.8947 309.679 48.708 311.647 46.904C313.669 45.0453 316.02 43.624 318.699 42.64C321.432 41.656 324.329 41.164 327.391 41.164C330.233 41.164 332.803 41.656 335.099 42.64C337.449 43.624 339.417 45.0453 341.003 46.904C342.643 48.708 343.9 50.8947 344.775 53.464C345.649 56.0333 346.087 58.9033 346.087 62.074V65.928H317.551C318.043 68.2787 319.109 70.1647 320.749 71.586C322.389 72.9527 324.411 73.636 326.817 73.636C328.839 73.636 330.534 73.1987 331.901 72.324C333.322 71.3947 334.552 70.2193 335.591 68.798L344.201 75.112ZM333.787 57.564C333.841 55.4867 333.158 53.71 331.737 52.234C330.315 50.758 328.484 50.02 326.243 50.02C324.876 50.02 323.673 50.2387 322.635 50.676C321.596 51.1133 320.694 51.6873 319.929 52.398C319.218 53.054 318.644 53.8467 318.207 54.776C317.824 55.6507 317.605 56.58 317.551 57.564H333.787Z" transform="translate(136 8)" fill="black"/>
<circle cx="48.5" cy="48.5" r="48.5" transform="translate(14 16)" fill="#216AC0"/>
<circle cx="36.5" cy="36.5" r="36.5" transform="translate(20 34)" fill="#4A90E2"/>
<circle cx="24" cy="24" r="24" transform="translate(27 52)" fill="#D6E9FF"/>
</g>
<defs>
<clipPath id="clip0">
<rect width="505" height="130" fill="white"/>
</clipPath>
</defs>
</svg>
